# xmcd
#
# Track frame offsets:
#	150
#	34216
#	75421
#	136534
#
# Disc length: 2362 seconds
#
# Revision: 1
# Processed by: cddbd v1.5.2PL0 Copyright (c) Steve Scherf et al.
# Submitted via: audiograbber 1.83.01
#
DISCID=22093804
DTITLE=Grateful Dead - 87-11-07 Henry J Kaiser Convention Centre, Oakland Ca
DYEAR=1900
DGENRE=
TTITLE0=Uncle John's Band
TTITLE1=Playing In The Band
TTITLE2=Terrapin Station
TTITLE3=Drums
EXTD=
EXTT0=
EXTT1=
EXTT2=
EXTT3=
PLAYORDER=
